<?xml version="1.0" encoding="UTF-8"?>
<svg id="Capa_2" xmlns="http://www.w3.org/2000/svg" version="1.1" viewBox="0 0 121.4 70.5">
  <!-- Generator: Adobe Illustrator 30.6.0, SVG Export Plug-In . SVG Version: 2.1.4 Build 109)  -->
  <defs>
    <style>
      .st0 {
        fill: #fff;
      }
    </style>
  </defs>
  <g id="Capa_1-2">
    <g>
      <path class="st0" d="M24.1,70.2c-3.3.4-5.8.5-8.6-.8,4.6-3.4,6.2-7.8,7.8-13.5l88.4-4.1c3.1-7.7,4.2-16,3-24.4l3.7-7.1.9-.2c.2,0,.8.6.9.8,2.7,11.3.6,24.8-3.8,35.5-.8,1.9-3.4,3.8-5.8,4.1l-86.4,9.6h0Z"/>
      <path class="st0" d="M28.7,49.7c-.4-2.4-.4-4.2-.3-6.6s2.1-5.6,4.9-5.5l37.3,1.4c8.6.3,8.6-4.3,15.7-10.1,1.4-1.2,3.3-1,4.4.5,2,2.7,3.6,5.4,5.1,8.4.3.5,1,1.2,1.8,1.2l7.8-14.1,10.6-6.7-15.7,28.7c-.7,1.3-2.2,3.1-3.9,2.3-1.3-.6-2.4-2.6-3.2-3.9l-3.4-5c-.2-.3-1-.8-1.3-.8s-1.3.5-1.6.8l-4.9,6.6c-1.1,1.5-2.4,2.4-4.4,2.4l-48.9.4h0Z"/>
      <path class="st0" d="M21.4,54.8c-1.2,3-6.2,11.3-9.4,11.3C-.2,48.5-3.6,25.2,4.1,5.2c3.9-4.1,12.2,5.2,14.4,8.3-2.1,13.3-1.9,28.2,2.9,41.3h0Z"/>
      <path class="st0" d="M78.6,29.2c-.3,2.4-5.6,5.8-6.9,3.9-2.8-4-5.1-8-7.5-12.2-.9-1.6-2.5-2.8-4.4-3.1l-39.8-6.6C17.1,7.6,12.5.8,7.4.4c4.2-1.3,20.2.6,25.2,1.5l30.4,5.4c3.2.6,4.7,2.9,6.2,5.4l9.4,16.4h0Z"/>
      <path class="st0" d="M59.1,29.6c0,1.6-1.6,4.3-3.5,4.2l-26.5-1.6c0-2.7,0-5.3.3-7.7.4-3.1,3-4.7,5.9-4.4l24.1,2.9-.2,6.6h-.1Z"/>
      <path class="st0" d="M104.9,22l-29-3.1-4.6-8.2c0-.2,0-1,0-1.2s.6-.3.9-.2l40.1,6.5c.4,0,.9.3.9.5l-.3.9-8.1,4.8h0Z"/>
    </g>
  </g>
</svg>