<?xml version="1.0" encoding="UTF-8"?>
<svg id="Capa_2" data-name="Capa 2" xmlns="http://www.w3.org/2000/svg" viewBox="0 0 135.47 134.79">
  <defs>
    <style>
      .cls-1 {
        fill: #000;
        stroke-width: 0px;
      }
    </style>
  </defs>
  <g id="Capa_1-2" data-name="Capa 1">
    <g>
      <path class="cls-1" d="M135.47,13.36c-.75,2.71-1.07,5.64-2.31,8.11-9.74,19.31-19.88,38.41-32.78,55.86-2.92,3.95-6.55,7.51-10.35,10.66-5.13,4.24-11.28,5.6-17.92,4.3-.24-.05-.57.03-.73-.1-6.13-4.77-12.94-8.92-18.11-14.56-3.54-3.86-3.55-10.17-1.95-15.37,1.12-3.65,3.14-7.49,5.87-10.11,10.13-9.74,20.68-19.05,31.15-28.45,7.23-6.48,14.55-12.85,21.87-19.23,6.04-5.26,13.69-5.91,19.56-1.7,3.56,2.56,5.59,5.93,5.7,10.6Z"/>
      <path class="cls-1" d="M0,94.7c3.9,2.64,6.98,4.91,10.24,6.88,4.85,2.93,6.52,2.38,8.81-2.86,4.03-9.2,10.76-14.95,20.8-16.7,2.46-.43,4.49-.27,6.54,1.51,6.11,5.3,12.35,10.45,18.65,15.51,1.98,1.59,2.6,3.38,2.52,5.8-.58,17.24-13.47,29.67-30.76,29.93-8.14.12-16.02-.48-22.67-5.68C3.19,120.54.08,108.66,0,94.7Z"/>
    </g>
  </g>
</svg>